# xmcd CD database file
#
# Track frame offsets:
#	150
#	30652
#	61115
#	89092
#	147180
#	184947
#	219310
#	242260
#	266490
#	309470
#
# Disc length: 4527 seconds
#
# Revision: 0
# Processed by: cddbd v1.5.2PL0 Copyright (c) Steve Scherf et al.
# Submitted via: CDex 1.51
#
DISCID=8511ad0a
DTITLE=Wes Montgomery - Impressions - The verve jazz sides [CD2]
DYEAR=1900
DGENRE=Jazz
TTITLE0=Unit 7
TTITLE1=Four on Six
TTITLE2=What's New?
TTITLE3=No Blues
TTITLE4=If You Could See Me Now
TTITLE5=Willow Weep for Me
TTITLE6=Impressions
TTITLE7=Oh, You Crazy Moon
TTITLE8=Four on Six(Live version)
TTITLE9=Misty
EXTD=
EXTT0=
EXTT1=
EXTT2=
EXTT3=
EXTT4=
EXTT5=
EXTT6=
EXTT7=
EXTT8=
EXTT9=
PLAYORDER=
